<?xml version="1.0" encoding="UTF-8" standalone="no"?>
<svg xmlns:rdf="http://www.w3.org/1999/02/22-rdf-syntax-ns#" xmlns="http://www.w3.org/2000/svg" version="1.1" xmlns:cc="http://creativecommons.org/ns#" xmlns:dc="http://purl.org/dc/elements/1.1/" viewBox="0 0 538.73 338.91">
<title>Kat&apos;s Cat Logo</title>
<g transform="translate(-78.466 -253.66)">
<path fill="#d45500" d="m437.54 257.72c-38.372 4.6402-74.891 19.778-107.34 40.443-19.62 1.1597-8.4567-52.27-41.865-24.276-35.169 21.193-18.993 46.845-46.643 40.317-26.184 3.6651-64.205 13.457-85.996 29.359-22.701 10.82-70.74-15.964-71.835 20.908 0.71194 25.471 24.581 41.828 29.868 65.78 13.2 25.661 47.867 27.97 61.705 53.131 15.978 21.491 36.382 41.037 62.485 49.167 24.868 13.941 41.004 41.781 70.581 47.658 29.898 8.1276 61.324 7.6246 91.965 9.5781 29.826-3.0412 59.367-10.201 87.672-19.848 55.652-22.756 108.27-67.946 120.91-129.02 6.1552-44.426 1.9703-94.581-30.171-128.86-26.736-27.612-63.708-43.623-100.72-51.618-13.557-0.67384-27.005-3.6015-40.625-2.7228zm146.4 239.88 0.0117 0.13476z"/>
</g>
<g transform="translate(-78.466 -253.66)">
<path d="m229.35 9.5684c-1.9463-0.015471-3.6744 0.58386-5.3555 1.7305-1.184 0.46625-2.2103 1.0316-3.3164 1.6543-3.5934 2.023-7.3349 3.8363-10.717 6.2148-2.5029 1.7246-5.0633 3.3895-7.3008 5.4609-2.1268 1.8413-4.1876 3.7613-5.9785 5.9395-2.3522 2.6628-4.6269 5.3884-7.0566 7.9824-1.9921 2.3382-3.879 4.7616-5.1914 7.5605-1.2924 2.3764-2.2792 4.8784-3.1738 7.4297-0.45622 1.5542-0.93559 3.104-1.3828 4.6621-1.697 0.0031-3.3985 0.07773-5.0918 0.05469-3.8512 0.09562-7.7139 0.2457-11.523 0.85938-3.7711 0.65619-7.4924 1.5537-11.221 2.416-4.0623 1.0486-8.1735 1.8979-12.266 2.8203-4.1713 1.0478-8.4279 1.7422-12.6 2.7988-3.4864 0.96267-7.0346 1.7131-10.438 2.9707-3.1607 1.1803-6.3399 2.26-9.3438 3.8262-3.1954 1.2266-6.3972 2.4097-9.6406 3.502-2.9402 1.4291-5.9954 2.6035-9.0254 3.8262-5.8879 2.7966-11.665 6.0009-16.74 10.113-1.3744 1.0387-2.7528 2.0725-4.1133 3.1289-1.963-1.047-3.956-2.053-5.952-3.057-4.685-2.061-9.576-3.877-14.668-4.574-5.1092-0.36663-10.191-0.25396-15.244 0.70508-3.9228 0.76352-7.7503 1.839-11.561 3.0312-2.5033 0.97543-4.9647 2.0255-7.2969 3.3652-4.3728 2.5996-10.298 4.275-12.664 9.1582-0.71838 2.713-0.62159 5.4216 0.18164 8.1191 1.0275 3.7557 2.154 7.4884 3.3359 11.197 1.2013 4.2106 2.5013 8.3817 4.1562 12.439 1.4601 3.739 3.0065 7.4388 4.6836 11.086 0.91271 2.0296 1.9791 3.9951 3.1738 5.877 0.09591 0.21508 0.19554 0.4284 0.28906 0.64454-0.67465 0.16356-0.39804 0.18216-0.01172 0.87304 0.01002 0.0168 0.01931 0.034 0.0293 0.0508-0.01263 0.0125-0.01849 0.0187-0.03125 0.0312-0.05927 0.0581 0.81257 1.3891 0.87109 1.4902 0.08305 0.11882 0.1581 0.241 0.23828 0.36133 0.21146 0.37598 0.41856 0.75451 0.64258 1.123 0.65374 1.15 1.1376 2.3926 1.6172 3.623 0.38272 0.97207 0.70397 1.9893 1.2676 2.875 0.02087-0.009 0.03405-0.0144 0.05469-0.0234 0.05501 0.16978 0.12545 0.23675 0.25781 0.17969 0.06014 0.13936 0.11457 0.28102 0.17578 0.41992 0.50652 1.2425 1.0804 2.4605 1.7793 3.6074 0.03621 0.0573 0.08267 0.12957 0.125 0.19727 0.14194 0.3103 0.27657 0.62478 0.42578 0.93164 0.05119 0.11261 0.10147 0.22514 0.15234 0.33789 0.04682 0.11703 0.08714 0.2368 0.13476 0.35352 0.07602 0.14408 0.12806 0.24563 0.18164 0.3457-0.03026-0.0675 0.0072-0.0184 0.16406 0.35937 0.0136 0.0329 0.01943 0.11581 0.04883 0.0957 0.04372-0.0299 0.07452-0.0456 0.11719-0.0742 0.07039 0.007 0.15037-0.0194 0.26758-0.10156 0.0659 0.14598 0.1387 0.28893 0.20312 0.43554 1.3728 2.7881 3.0361 5.4818 4.9746 7.9141 1.9668 2.3802 3.7933 4.8621 5.6621 7.3184 2.1042 2.516 4.3721 4.9024 6.6133 7.3008 2.4644 2.7074 5.4072 4.912 8.3203 7.1055 3.0676 2.4207 6.1478 4.8305 9.3555 7.0645 2.8648 1.8882 5.7528 3.7614 8.75 5.4355 3.4559 1.6912 6.8142 3.5494 10.367 5.0352 4.1174 1.889 8.4749 3.1368 12.787 4.4863 4.4883 1.3999 8.962 2.8498 13.457 4.2285 4.1026 1.1913 8.2088 2.2884 12.439 2.9024 3.8089 0.42413 7.5707 1.1365 11.385 1.5254 4.1938 0.54173 8.391-0.0208 12.568-0.41602 3.9973-0.45945 8.0306-0.33546 12.031-0.69922 3.3661-0.5995 6.7866-0.78356 10.166-1.2617 2.9665-0.66993 6.0011-0.90506 8.9941-1.3965 2.8057-0.65296 5.585-1.4936 8.3301-2.375 2.3023-0.67212 4.4267-1.7254 6.543-2.8301l8.1406-4.7754-7.7715 3.0312 6.1387-3.4688c-2.1347 1.0514-4.1583 2.3045-6.4824 2.918-2.6639 1.0405-5.533 1.6446-8.2617 2.4883-2.9679 0.62687-6.0444 0.65755-8.9961 1.4258-3.3572 0.60127-6.8034 0.59472-10.152 1.3027-3.9908 0.50576-8.0422 0.24857-12.043 0.7207-4.1417 0.40024-8.2986 1.0348-12.461 0.53711-3.8151-0.35277-7.5697-1.0698-11.373-1.4941-4.2192-0.54818-8.3049-1.6031-12.391-2.7773-4.5018-1.3517-8.9658-2.829-13.453-4.2266-4.2972-1.3138-8.6274-2.5717-12.727-4.4375-3.5443-1.4335-6.8471-3.323-10.293-4.9668-2.9786-1.6619-5.8494-3.5165-8.709-5.3711-3.2293-2.1853-6.2939-4.605-9.3516-7.0215-0.45593-0.34565-0.9129-0.69355-1.3691-1.041-0.02045-0.0409-0.04008-0.0822-0.06055-0.12304-0.76253-1.1322-1.6908-2.1389-2.5488-3.1973-1.3013-1.4279-2.6015-2.855-4.0078-4.1816-1.5052-1.6654-3.1526-3.1882-4.6191-4.8887-0.44086-0.47785-0.86845-0.96784-1.291-1.4609-0.02901-0.0501-0.06111-0.0981-0.08984-0.14844-1.4185-2.3134-2.9149-4.5781-4.4258-6.832-1.3331-2.0755-2.7653-4.0828-4.0762-6.1719-0.6263-1.4657-1.2564-2.9294-1.8516-4.4082-0.68872-1.5119-1.3943-3.016-2.0273-4.5527-0.66173-1.5966-1.3226-3.1929-2.1641-4.707-0.1877-0.35778-0.35881-0.72271-0.52539-1.0898-0.66239-2.913-2.0485-5.6064-3.3008-8.3008-1.7446-3.2943-3.4353-6.637-4.7871-10.113-1.3115-3.6334-2.7991-7.2014-4.1875-10.807-1.2921-3.6618-2.6615-7.2983-4.002-10.941-1.2287-3.5034-2.6249-6.9423-3.6172-10.525l-1.2031 0.67187c0.075442-0.95261 0.26979-1.8974 0.61719-2.8223 0.38017-0.7324 0.9255-1.3506 1.5391-1.8965 1.4192-0.6887 2.868-1.3185 4.3301-1.9219 3.7867-1.2957 7.6276-2.381 11.543-3.207 5.0001-0.99149 10.055-1.1994 15.127-0.88867 5.0415 0.56932 9.8607 2.3507 14.494 4.3477 3.1377 1.5315 6.2277 3.1431 9.252 4.8887l6.9512-4.5117c-0.47-0.294-0.96-0.562-1.448-0.834l1.3301-0.55078c2.7225-2.3913 5.6605-4.4969 8.5352-6.6953-1.0774 0.38997-0.09256-0.32232 1.2832-1.209 0.51711-0.27089 0.89108-0.47239 1.2949-0.67383 2.9993-1.279 6.0361-2.4642 9.002-3.8203 3.1749-1.2592 6.4238-2.3146 9.6094-3.5527 3.0627-1.4255 6.1646-2.7015 9.3418-3.8438 3.3969-1.2551 6.9085-2.1281 10.406-3.041 4.1698-1.0737 8.4069-1.8558 12.6-2.8262 4.0901-0.92928 8.1921-1.8077 12.266-2.8086 3.7133-0.87661 7.4325-1.7564 11.184-2.459 3.772-0.66709 7.6043-0.8394 11.426-0.94336 2.9894 0.007 5.9927-0.19294 8.9727 0.08789 0.46756 0.07337 0.93478 0.1473 1.4023 0.2207l0.20313-0.14258c-0.0557 0.33361-0.11195 0.66762-0.15625 1.0039l7.5078-3.6699c0.3837-3.6719 1.7093-7.1384 2.7305-10.66 0.9798-2.4965 1.9415-4.9625 3.3008-7.2793 1.2572-2.7782 3.2203-5.1129 5.209-7.3887 2.4148-2.6148 4.7579-5.2901 7.0781-7.9863 1.7822-2.1758 3.9169-3.9992 6.0352-5.8359 1.9515-1.7298 4.1035-3.2261 6.2793-4.666 0.1581-0.07307 0.25631-0.11811 0.79688-0.36523 1.904-1.0485 3.7523-1.9916 5.9609-1.9766 2.1173 0.40361 3.5133 2.0156 4.8555 3.5566 1.3537 1.9145 2.7653 3.817 3.8398 5.9062 1.1194 2.2426 2.1668 4.5457 3.0469 6.8965 0.73852 2.2009 1.5992 4.3053 2.0098 6.6035 0.36726 2.6337 0.37488 5.2993 0.39648 7.9531 0.009 2.8156-0.003 5.6316-0.008 8.4473-0.0889 2.8042 0.19358 5.6306-0.19531 8.4141-0.32161 1.8607-0.16282 0.92705-0.47852 2.7988l0.82032-0.40039c-0.13755 2.9694-0.15434 5.9421-0.16211 8.9141-0.002 2.8204 0.003 5.6425 0.006 8.4629 0.21306 2.8382-0.46265 5.5951-0.8711 8.3828-0.39235 2.8711-0.47802 5.7705-0.51172 8.6641 0.0663 3.454-0.0162 6.8672-0.43164 10.295-0.32225 3.9748-0.94165 7.8944-1.5508 11.832-0.3579 3.6965-1.1939 7.3153-1.6738 10.994-0.66647 3.883-1.609 7.7031-2.3887 11.562-0.92812 3.5914-1.928 7.1619-2.8086 10.766-0.62706 3.072-1.5257 6.0808-2.4746 9.0664-0.83183 2.845-1.8077 5.6467-2.7695 8.4512-0.94994 2.8181-1.6987 5.7203-3.0039 8.4004-1.2579 2.8891-2.4758 5.7854-3.8906 8.6035-1.6551 3.2709-3.8076 6.2543-5.4453 9.5293-1.2992 2.2998-2.7821 4.4779-4.416 6.5547-1.6413 2.1619-3.1958 4.365-4.6641 6.6524-1.4813 2.2998-3.2181 4.3283-5.4258 5.9414l7.7109-3.0859c2.1164-1.7688 3.8529-3.8721 5.332-6.2031 1.4648-2.2731 3.087-4.4208 4.6992-6.5898 1.6046-2.1194 3.0893-4.3246 4.3262-6.6816 1.7067-3.2363 3.7948-6.2565 5.4356-9.5332 1.4123-2.8287 2.5996-5.7541 3.8984-8.6348 1.2174-2.7404 2.0122-5.6432 2.9726-8.4805 0.97375-2.8048 1.911-5.6241 2.7598-8.4688 0.94883-2.9952 1.7856-6.0298 2.4316-9.1055 0.89659-3.6034 1.8895-7.1808 2.7754-10.787 0.79972-3.8705 1.7268-7.7128 2.3711-11.615 0.52356-3.6657 1.3031-7.2887 1.6738-10.977 0.61298-3.9446 1.1816-7.8819 1.543-11.859 0.41742-3.4558 0.44708-6.9057 0.42188-10.385 0.0679-2.8639 0.15229-5.7336 0.57226-8.5723 0.43002-2.8204 1.0276-5.6235 0.81836-8.4961-0.003-2.8191-0.009-5.6379-0.008-8.457 0.007-3.0406 0.0187-6.0834 0.16601-9.1211 0.20025-3.5797 0.49338-7.1591 1.1309-10.691l-1.2773 0.625c0.002-0.18088-0.006-0.36215-0.002-0.54297 0.005-2.8186 0.0171-5.6365 0.004-8.4551-0.0265-2.7-0.0413-5.4123-0.44726-8.0879-0.44452-2.3382-1.3194-4.4939-2.082-6.7363-0.90839-2.3747-1.97-4.7021-3.0918-6.9805-1.1133-2.145-2.5594-4.1036-3.9375-6.084-1.4932-1.6986-2.9794-3.395-5.2129-4.1211-0.28744-0.027518-0.56962-0.042712-0.84766-0.044922z" transform="translate(78.466 253.66)"/>
<path d="m325.11 299.84c6.8402-4.1205 13.748-8.125 20.811-11.855 8.1396-4.9115 16.709-9.0268 25.173-13.331 12.031-5.5246 24.5-10.039 37.146-13.925 12.656-3.9256 25.655-6.1774 38.864-6.9177 13.246-0.72015 26.386 1.1508 39.401 3.3674 10.743 2.277 21.513 4.8303 31.719 8.9681 2.2436 0.90963 4.4265 1.9624 6.6398 2.9437 13.063 5.823 25.417 12.997 37.381 20.793 11.611 7.9389 21.326 18.098 30.176 28.937 8.6659 10.455 13.98 22.317 18.287 35.053 4.0333 13.165 5.4541 26.841 6.3081 40.518 0.62835 14.173-0.47376 28.302-2.7354 42.284-2.3679 14.184-7.3976 27.706-13.517 40.657-6.8128 13.276-16.275 24.805-26.337 35.713-11.687 12.797-25.406 23.397-39.629 33.192-16.035 10.742-33.046 19.897-50.901 27.195-14.762 6.0077-30.261 9.7426-45.786 13.142-15.2 3.1662-30.632 4.6714-46.11 5.5309-16.222 1.0566-32.43 0.17013-48.572-1.4832-14.793-1.4895-29.334-4.5346-43.507-8.9801-11.541-3.758-22.392-9.0281-32.206-16.152-5.09-4.0029-10.024-8.4037-13.386-14.017-1.9492-3.254-2.1824-4.424-3.4556-7.947-2.2356-7.8497-2.2445-14.095 0.85525-21.63 4.0626-7.3607 12.094-11.57 20.096-13.422 6.8195-0.70631 13.505 1.4619 20.063 3.0588 9.7777 2.6822 19.651 4.879 29.654 6.5265 13.13 2.1283 26.406 3.2626 39.669 4.1751 15.501 1.1286 31.023 0.26132 46.468-1.1556 18.183-1.7497 36.177-4.9129 54.026-8.7354 12.47-2.6535 24.666-6.2586 36.714-10.39l-5.9916 4.6612c-12.07 4.0863-24.281 7.671-36.759 10.312-17.897 3.8115-35.939 6.9741-54.166 8.7269-15.5 1.4194-31.079 2.2636-46.634 1.1226-13.309-0.9102-26.628-2.054-39.807-4.1689-10.055-1.657-19.984-3.8526-29.832-6.4737-6.5076-1.5484-13.175-3.683-19.921-2.6786-2.1455 0.57046-11.568 4.0122-0.482-1.0923 0.83044-0.38236-1.5075 1.0446-2.182 1.6618-1.786 1.6343-2.1586 2.4596-3.4899 4.4603-3.3431 7.4443-3.3628 13.254-1.2259 21.135 1.2179 3.4379 1.4445 4.6032 3.3286 7.779 3.2918 5.5482 8.176 9.866 13.178 13.826 9.7398 7.0679 20.51 12.286 31.965 16.004 14.104 4.4233 28.578 7.4486 43.298 8.9342 16.142 1.6412 32.343 2.4201 48.559 1.3414 15.447-0.87421 30.847-2.4092 46.009-5.6101 15.502-3.4139 30.968-7.1979 45.695-13.241 13.158-5.4328 26.046-11.433 37.741-19.629 14.212-9.7063 27.893-20.25 39.564-32.981 10.073-10.831 19.527-22.3 26.402-35.484 6.1596-12.873 11.187-26.336 13.606-40.455 2.29-13.925 3.4005-27.999 2.8002-42.121-0.83827-13.61-2.237-27.217-6.2415-40.32-4.3055-12.756-9.478-24.323-18.128-34.82-8.7967-10.786-18.453-20.918-30.076-28.716-11.899-7.8072-24.202-14.982-37.25-20.722-12.322-5.2908-25.074-9.3392-38.297-11.723-12.987-2.1795-26.098-3.9951-39.307-3.2159-13.168 0.82049-26.124 3.1092-38.735 7.0573-12.661 3.9381-25.167 8.454-37.171 14.116-8.5062 4.3156-17.07 8.5256-25.265 13.423-5.691 3.0334-3.401 1.8875 0.96922-0.81335 0.76029-0.46987-1.5452 0.89883-2.313 1.3563-8.7378 5.2056 3.8606-2.2709-3.8798 2.3772-0.48497 0.29123-0.98024 0.56494-1.4704 0.84741l-7.8008 3.0095z"/>
<path d="m184.27 487.78c1.767 4.6855 4.6964 8.8153 7.6633 12.806 6.4175 8.0117 14.671 14.113 23.157 19.744 5.1277 3.3543 10.725 5.7072 16.398 7.931l-6.5624 4.3995c-5.6983-2.2824-11.327-4.6862-16.487-8.0697-8.5756-5.6795-16.938-11.845-23.518-19.845-3.037-4.0355-5.9915-8.2051-7.9578-12.886l7.306-4.0799z"/>
<path d="m318.05 166.23c-1.0871 0.001-3.0193 1.3148-4.7227 2.9024-0.88754 0.34889-1.5731 0.88016-1.8262 1.7773-0.0178 0.0632-0.0266 0.12893-0.0391 0.19336-0.38847 0.47551-0.72563 0.94128-0.97657 1.3691-1.187 2.7629-2.6551 5.3804-3.9941 8.0723-1.5987 3.4416-3.2121 6.8921-5.0586 10.211-1.9972 3.83-3.6505 7.7705-5.1621 11.809-0.57327 1.8448-1.107 3.7007-1.5762 5.5703-0.21131 0.31597-0.41216 0.63727-0.53516 1.002-0.33029 1.0013-0.50765 2.0466-0.56445 3.0996-0.0527 0.62868-0.12479 1.2582-0.1875 1.8867-0.0165 0.0275-0.0343 0.0525-0.0508 0.0801-0.48008 0.85292-0.71252 1.7818-0.86914 2.7402-0.13847 1.081-0.14139 2.1735-0.15039 3.2617-0.003 1.1434 0.007 2.2863 0.008 3.4297 0.0607 0.49296 0.12071 0.98954 0.21094 1.4785-0.0772 0.72177 0.0246 1.4475 0.0937 2.1758 0.0254 1.0526 0.17853 2.0808 0.35937 3.1152 0.0831 0.89177 0.21855 1.7734 0.35742 2.6562 0.0531 0.38071 0.10993 0.76069 0.1543 1.1426 0.12612 1.2683 0.18239 2.5653 0.54102 3.7949 0.0266 0.0558 0.0538 0.0839 0.0801 0.13086 0.009 0.0439 0.0119 0.0891 0.0215 0.13281 0.2223 0.91362 0.34639 1.8401 0.56641 2.7539 0.15864 0.92304 0.36137 1.8326 0.55859 2.748 0.34402 0.87289 0.44811 1.8096 0.69922 2.7051 0.29482 0.76972 0.32936 1.5964 0.50195 2.3926 0.1415 0.85203 0.37813 1.6714 0.61328 2.5 0.2717 1.1625 0.21719 1.578 0.54688 1.459 0.0151 0.0574 0.0343 0.0896 0.0508 0.13086 0.0627 0.4824 0.10212 0.96723 0.125 1.4531 0.004 0.0193-0.003 0.0689 0.0137 0.0586 0.0648-0.0393 0.0811-0.0453 0.14258-0.082 0.12434 0.003 0.39173-0.19507 0.81445-0.46875 0.26983-0.15175 0.6014-0.34957 0.77734-0.45117 0.1365-0.0701 0.29674-0.13972 0.45508-0.21094 0.008 0.0221 0.0139 0.0444 0.0215 0.0664l7.2402-3.998c-0.69472-1.9942-1.2957-4.0108-1.8164-6.0586-1.2408-5.3407-2.6902-10.632-3.625-16.041-0.12464-0.66872-0.23841-1.3386-0.34375-2.0098 0.30354-3.0441 0.82929-6.0696 1.3965-9.0781 1.2354-6.3415 3.3815-12.409 5.4238-18.516 1.9766-5.3901 3.7434-10.853 5.6973-16.25 1.3096-3.6394 2.7333-7.2356 4.0762-10.863 0.15471-0.49652 0.30143-0.99588 0.46289-1.4902 0.65681-2.0111 0.32333-2.7822-0.51172-2.7812z" transform="translate(78.466 253.66)"/>
<path d="m252.22 426.86c-1.9783-2.5624-3.7372-5.2168-3.9187-8.5152 0.0238-2.5859 1.6025-4.2117 3.5041-5.7168 3.0286-2.3669 6.0158-4.7894 8.9564-7.2654 4.7096-4.056 9.3586-8.181 13.998-12.317l7.5647-3.0838c-4.6233 4.143-9.2879 8.2372-13.959 12.324-2.8927 2.4718-5.8359 4.8798-8.81 7.2513-1.7811 1.317-3.6578 2.6192-3.8396 5.0144-0.0877 3.1841 1.8451 5.7038 3.7378 8.1158l-7.2339 4.1928z"/>
<path d="m208.82 440.63c-0.71688-3.3083-2.4248-6.0953-5.1329-8.1009-2.4886-1.4672-5.3586-1.6167-8.1711-1.7189-3.1153-0.2091-6.1602 0.54466-9.2409 0.89634-5.0981 0.6662-10.198 0.18966-15.295-0.16299-4.2837-0.50792-2.1459-0.18677-6.413-0.96568l6.6802-4.6773c4.2361 0.7228 2.1122 0.42762 6.3716 0.88676 5.101 0.32734 10.209 0.70051 15.299-0.0309 3.1079-0.40314 6.201-1.0841 9.3531-0.80653 2.9499 0.16272 5.9148 0.46525 8.443 2.1481 2.778 2.2215 4.5947 5.1576 5.4893 8.6154l-7.3827 3.9166z"/>
</g>
</svg>
